<svg width="345" height="80" viewBox="0 0 345 80" fill="none" xmlns="http://www.w3.org/2000/svg">
<g filter="url(#filter0_d_9_38)">
<rect x="11" y="9" width="325" height="60" rx="15" fill="black"/>
</g>
<g filter="url(#filter1_d_9_38)">
<path d="M157.888 42H150.135V27.9961H152.459V40.0371H157.888V42ZM164.099 42.2344C162.556 42.2344 161.323 41.7689 160.398 40.8379C159.48 39.9004 159.021 38.6602 159.021 37.1172C159.021 35.4375 159.5 34.1257 160.457 33.1816C161.42 32.2376 162.716 31.7656 164.344 31.7656C165.906 31.7656 167.123 32.2246 167.996 33.1426C168.868 34.0605 169.304 35.3333 169.304 36.9609C169.304 38.556 168.832 39.8353 167.888 40.7988C166.951 41.7559 165.688 42.2344 164.099 42.2344ZM164.207 33.5723C163.321 33.5723 162.622 33.8815 162.107 34.5C161.593 35.1185 161.336 35.9714 161.336 37.0586C161.336 38.1068 161.596 38.9336 162.117 39.5391C162.638 40.138 163.334 40.4375 164.207 40.4375C165.099 40.4375 165.782 40.1413 166.258 39.5488C166.739 38.9564 166.98 38.1133 166.98 37.0195C166.98 35.9193 166.739 35.0697 166.258 34.4707C165.782 33.8717 165.099 33.5723 164.207 33.5723ZM180.72 41.1992C180.72 44.8711 178.875 46.707 175.183 46.707C173.881 46.707 172.745 46.4889 171.775 46.0527V43.9824C172.869 44.6074 173.907 44.9199 174.89 44.9199C177.267 44.9199 178.455 43.7513 178.455 41.4141V40.3203H178.416C177.667 41.5964 176.541 42.2344 175.037 42.2344C173.819 42.2344 172.836 41.7917 172.088 40.9062C171.345 40.0143 170.974 38.8197 170.974 37.3223C170.974 35.623 171.375 34.2721 172.176 33.2695C172.976 32.2669 174.077 31.7656 175.476 31.7656C176.798 31.7656 177.778 32.306 178.416 33.3867H178.455V32H180.72V41.1992ZM178.474 37.4199V36.1211C178.474 35.418 178.24 34.819 177.771 34.3242C177.309 33.8229 176.73 33.5723 176.033 33.5723C175.174 33.5723 174.5 33.8913 174.011 34.5293C173.53 35.1608 173.289 36.0462 173.289 37.1855C173.289 38.1686 173.52 38.9564 173.982 39.5488C174.451 40.1348 175.069 40.4277 175.838 40.4277C176.619 40.4277 177.254 40.1478 177.742 39.5879C178.23 39.0215 178.474 38.2988 178.474 37.4199ZM184.812 29.9004C184.441 29.9004 184.122 29.7799 183.855 29.5391C183.595 29.2982 183.465 28.9922 183.465 28.6211C183.465 28.25 183.595 27.9408 183.855 27.6934C184.122 27.446 184.441 27.3223 184.812 27.3223C185.196 27.3223 185.522 27.446 185.789 27.6934C186.056 27.9408 186.189 28.25 186.189 28.6211C186.189 28.9727 186.056 29.2754 185.789 29.5293C185.522 29.7767 185.196 29.9004 184.812 29.9004ZM185.935 42H183.67V32H185.935V42ZM197.81 42H195.545V36.3652C195.545 34.4967 194.884 33.5625 193.562 33.5625C192.872 33.5625 192.302 33.8229 191.853 34.3438C191.404 34.8581 191.179 35.5091 191.179 36.2969V42H188.904V32H191.179V33.6602H191.219C191.967 32.3971 193.048 31.7656 194.461 31.7656C195.548 31.7656 196.378 32.1204 196.951 32.8301C197.524 33.5332 197.81 34.5521 197.81 35.8867V42Z" fill="#00FFCB"/>
</g>
<defs>
<filter id="filter0_d_9_38" x="0" y="0" width="345" height="80" filterUnits="userSpaceOnUse" color-interpolation-filters="sRGB">
<feFlood flood-opacity="0" result="BackgroundImageFix"/>
<feColorMatrix in="SourceAlpha" type="matrix" values="0 0 0 0 0 0 0 0 0 0 0 0 0 0 0 0 0 0 127 0" result="hardAlpha"/>
<feOffset dx="-1" dy="1"/>
<feGaussianBlur stdDeviation="5"/>
<feColorMatrix type="matrix" values="0 0 0 0 0.0196078 0 0 0 0 0.0196078 0 0 0 0 0.133333 0 0 0 0.15 0"/>
<feBlend mode="normal" in2="BackgroundImageFix" result="effect1_dropShadow_9_38"/>
<feBlend mode="normal" in="SourceGraphic" in2="effect1_dropShadow_9_38" result="shape"/>
</filter>
<filter id="filter1_d_9_38" x="139.135" y="18.3223" width="67.6758" height="39.3848" filterUnits="userSpaceOnUse" color-interpolation-filters="sRGB">
<feFlood flood-opacity="0" result="BackgroundImageFix"/>
<feColorMatrix in="SourceAlpha" type="matrix" values="0 0 0 0 0 0 0 0 0 0 0 0 0 0 0 0 0 0 127 0" result="hardAlpha"/>
<feOffset dx="-1" dy="1"/>
<feGaussianBlur stdDeviation="5"/>
<feColorMatrix type="matrix" values="0 0 0 0 1 0 0 0 0 0.870588 0 0 0 0 0.411765 0 0 0 0.15 0"/>
<feBlend mode="normal" in2="BackgroundImageFix" result="effect1_dropShadow_9_38"/>
<feBlend mode="normal" in="SourceGraphic" in2="effect1_dropShadow_9_38" result="shape"/>
</filter>
</defs>
</svg>
