<svg width="30" height="30" viewBox="0 0 30 30" fill="none" xmlns="http://www.w3.org/2000/svg">
<path d="M19.6375 10.3625C19.5213 10.2453 19.3831 10.1524 19.2308 10.0889C19.0784 10.0254 18.9151 9.99276 18.75 9.99276C18.585 9.99276 18.4216 10.0254 18.2693 10.0889C18.117 10.1524 17.9787 10.2453 17.8625 10.3625L15 13.2375L12.1375 10.3625C11.9022 10.1271 11.5829 9.99489 11.25 9.99489C10.9172 9.99489 10.5979 10.1271 10.3625 10.3625C10.1272 10.5979 9.99492 10.9171 9.99492 11.25C9.99492 11.5829 10.1272 11.9021 10.3625 12.1375L13.2375 15L10.3625 17.8625C10.2454 17.9787 10.1524 18.117 10.0889 18.2693C10.0255 18.4216 9.99279 18.585 9.99279 18.75C9.99279 18.915 10.0255 19.0784 10.0889 19.2307C10.1524 19.3831 10.2454 19.5213 10.3625 19.6375C10.4787 19.7547 10.617 19.8477 10.7693 19.9111C10.9216 19.9746 11.085 20.0073 11.25 20.0073C11.4151 20.0073 11.5784 19.9746 11.7308 19.9111C11.8831 19.8477 12.0213 19.7547 12.1375 19.6375L15 16.7625L17.8625 19.6375C17.9787 19.7547 18.117 19.8477 18.2693 19.9111C18.4216 19.9746 18.585 20.0073 18.75 20.0073C18.9151 20.0073 19.0784 19.9746 19.2308 19.9111C19.3831 19.8477 19.5213 19.7547 19.6375 19.6375C19.7547 19.5213 19.8477 19.3831 19.9111 19.2307C19.9746 19.0784 20.0073 18.915 20.0073 18.75C20.0073 18.585 19.9746 18.4216 19.9111 18.2693C19.8477 18.117 19.7547 17.9787 19.6375 17.8625L16.7625 15L19.6375 12.1375C19.7547 12.0213 19.8477 11.8831 19.9111 11.7307C19.9746 11.5784 20.0073 11.415 20.0073 11.25C20.0073 11.085 19.9746 10.9216 19.9111 10.7693C19.8477 10.617 19.7547 10.4787 19.6375 10.3625ZM23.8375 6.16251C22.6845 4.96863 21.3051 4.01635 19.7801 3.36124C18.255 2.70613 16.6148 2.3613 14.9551 2.34688C13.2953 2.33245 11.6493 2.64873 10.1131 3.27724C8.57691 3.90575 7.18126 4.83391 6.0076 6.00757C4.83394 7.18123 3.90578 8.57688 3.27727 10.1131C2.64876 11.6493 2.33248 13.2953 2.34691 14.955C2.36133 16.6148 2.70616 18.255 3.36127 19.7801C4.01638 21.3051 4.96866 22.6844 6.16254 23.8375C7.31562 25.0314 8.69493 25.9837 10.22 26.6388C11.745 27.2939 13.3853 27.6387 15.045 27.6531C16.7048 27.6676 18.3508 27.3513 19.887 26.7228C21.4232 26.0943 22.8188 25.1661 23.9925 23.9924C25.1661 22.8188 26.0943 21.4231 26.7228 19.8869C27.3513 18.3507 27.6676 16.7047 27.6532 15.045C27.6387 13.3853 27.2939 11.745 26.6388 10.22C25.9837 8.6949 25.0314 7.31559 23.8375 6.16251ZM22.075 22.075C20.4401 23.7118 18.2882 24.731 15.986 24.9591C13.6838 25.1872 11.3738 24.6101 9.44944 23.326C7.52509 22.0419 6.10549 20.1303 5.4325 17.9169C4.75952 15.7035 4.87479 13.3252 5.75868 11.1872C6.64257 9.04929 8.24038 7.28394 10.2799 6.19196C12.3194 5.09998 14.6745 4.74892 16.9438 5.1986C19.2131 5.64828 21.2563 6.87087 22.7253 8.65808C24.1943 10.4453 24.9982 12.6866 25 15C25.0045 16.3141 24.7483 17.6161 24.2462 18.8305C23.7441 20.0449 23.0062 21.1477 22.075 22.075Z" fill="#EF5858"/>
</svg>
