<svg width="358" height="85" viewBox="0 0 358 85" fill="none" xmlns="http://www.w3.org/2000/svg">
<g filter="url(#filter0_d)">
<rect x="11.1978" y="9.52283" width="337.722" height="64.2745" rx="15" fill="#00FFCB"/>
</g>
<g filter="url(#filter1_d)">
<path d="M126.316 48.0914H118.562V34.0875H120.886V46.1285H126.316V48.0914ZM132.527 48.3257C130.984 48.3257 129.75 47.8602 128.826 46.9293C127.908 45.9918 127.449 44.7515 127.449 43.2086C127.449 41.5289 127.927 40.217 128.884 39.273C129.848 38.329 131.143 37.857 132.771 37.857C134.333 37.857 135.551 38.316 136.423 39.2339C137.296 40.1519 137.732 41.4247 137.732 43.0523C137.732 44.6474 137.26 45.9267 136.316 46.8902C135.378 47.8472 134.115 48.3257 132.527 48.3257ZM132.634 39.6636C131.749 39.6636 131.049 39.9729 130.535 40.5914C130.02 41.2099 129.763 42.0627 129.763 43.15C129.763 44.1981 130.023 45.025 130.544 45.6304C131.065 46.2294 131.762 46.5289 132.634 46.5289C133.526 46.5289 134.21 46.2326 134.685 45.6402C135.167 45.0477 135.408 44.2047 135.408 43.1109C135.408 42.0106 135.167 41.161 134.685 40.5621C134.21 39.9631 133.526 39.6636 132.634 39.6636ZM149.148 47.2906C149.148 50.9625 147.302 52.7984 143.611 52.7984C142.309 52.7984 141.173 52.5803 140.203 52.1441V50.0738C141.296 50.6988 142.335 51.0113 143.318 51.0113C145.694 51.0113 146.882 49.8427 146.882 47.5054V46.4117H146.843C146.094 47.6877 144.968 48.3257 143.464 48.3257C142.247 48.3257 141.264 47.883 140.515 46.9976C139.773 46.1057 139.402 44.911 139.402 43.4136C139.402 41.7144 139.802 40.3635 140.603 39.3609C141.404 38.3583 142.504 37.857 143.904 37.857C145.225 37.857 146.205 38.3974 146.843 39.4781H146.882V38.0914H149.148V47.2906ZM146.902 43.5113V42.2125C146.902 41.5093 146.667 40.9104 146.199 40.4156C145.736 39.9143 145.157 39.6636 144.46 39.6636C143.601 39.6636 142.927 39.9826 142.439 40.6207C141.957 41.2522 141.716 42.1376 141.716 43.2769C141.716 44.26 141.947 45.0477 142.41 45.6402C142.878 46.2261 143.497 46.5191 144.265 46.5191C145.046 46.5191 145.681 46.2392 146.169 45.6793C146.658 45.1129 146.902 44.3902 146.902 43.5113ZM153.24 35.9918C152.869 35.9918 152.55 35.8713 152.283 35.6304C152.022 35.3895 151.892 35.0836 151.892 34.7125C151.892 34.3414 152.022 34.0321 152.283 33.7847C152.55 33.5373 152.869 33.4136 153.24 33.4136C153.624 33.4136 153.949 33.5373 154.216 33.7847C154.483 34.0321 154.617 34.3414 154.617 34.7125C154.617 35.064 154.483 35.3668 154.216 35.6207C153.949 35.8681 153.624 35.9918 153.24 35.9918ZM154.363 48.0914H152.097V38.0914H154.363V48.0914ZM166.238 48.0914H163.972V42.4566C163.972 40.5881 163.311 39.6539 161.99 39.6539C161.3 39.6539 160.73 39.9143 160.281 40.4351C159.831 40.9494 159.607 41.6005 159.607 42.3882V48.0914H157.331V38.0914H159.607V39.7515H159.646C160.395 38.4885 161.475 37.857 162.888 37.857C163.975 37.857 164.805 38.2118 165.378 38.9214C165.951 39.6246 166.238 40.6435 166.238 41.9781V48.0914ZM192.146 34.0875L188.308 48.0914H185.681L183.015 38.2964C182.904 37.8798 182.836 37.4241 182.81 36.9293H182.771C182.738 37.3915 182.66 37.8407 182.536 38.2769L179.861 48.0914H177.175L173.259 34.0875H175.808L178.347 44.3414C178.451 44.7711 178.516 45.2203 178.542 45.689H178.591C178.617 45.357 178.708 44.9078 178.865 44.3414L181.736 34.0875H184.128L186.785 44.4195C186.876 44.7711 186.944 45.1877 186.99 45.6695H187.029C187.048 45.344 187.123 44.9143 187.253 44.3804L189.744 34.0875H192.146ZM194.978 35.9918C194.607 35.9918 194.288 35.8713 194.021 35.6304C193.76 35.3895 193.63 35.0836 193.63 34.7125C193.63 34.3414 193.76 34.0321 194.021 33.7847C194.288 33.5373 194.607 33.4136 194.978 33.4136C195.362 33.4136 195.688 33.5373 195.954 33.7847C196.221 34.0321 196.355 34.3414 196.355 34.7125C196.355 35.064 196.221 35.3668 195.954 35.6207C195.688 35.8681 195.362 35.9918 194.978 35.9918ZM196.101 48.0914H193.835V38.0914H196.101V48.0914ZM204.343 47.9839C203.9 48.2053 203.318 48.316 202.595 48.316C200.655 48.316 199.685 47.385 199.685 45.523V39.8687H198.015V38.0914H199.685V35.7769L201.951 35.1324V38.0914H204.343V39.8687H201.951V44.8687C201.951 45.4612 202.058 45.8843 202.273 46.1382C202.488 46.3922 202.846 46.5191 203.347 46.5191C203.731 46.5191 204.063 46.4084 204.343 46.1871V47.9839ZM215.183 48.0914H212.917V42.6226C212.917 40.6435 212.257 39.6539 210.935 39.6539C210.271 39.6539 209.711 39.9403 209.255 40.5132C208.8 41.0862 208.572 41.8186 208.572 42.7105V48.0914H206.296V33.2867H208.572V39.7515H208.611C209.366 38.4885 210.447 37.857 211.853 37.857C214.073 37.857 215.183 39.2144 215.183 41.9293V48.0914ZM232.546 47.2906C232.546 50.9625 230.701 52.7984 227.009 52.7984C225.707 52.7984 224.571 52.5803 223.601 52.1441V50.0738C224.695 50.6988 225.733 51.0113 226.716 51.0113C229.092 51.0113 230.281 49.8427 230.281 47.5054V46.4117H230.242C229.493 47.6877 228.367 48.3257 226.863 48.3257C225.645 48.3257 224.662 47.883 223.913 46.9976C223.171 46.1057 222.8 44.911 222.8 43.4136C222.8 41.7144 223.201 40.3635 224.001 39.3609C224.802 38.3583 225.902 37.857 227.302 37.857C228.624 37.857 229.604 38.3974 230.242 39.4781H230.281V38.0914H232.546V47.2906ZM230.3 43.5113V42.2125C230.3 41.5093 230.066 40.9104 229.597 40.4156C229.135 39.9143 228.555 39.6636 227.859 39.6636C226.999 39.6636 226.326 39.9826 225.837 40.6207C225.356 41.2522 225.115 42.1376 225.115 43.2769C225.115 44.26 225.346 45.0477 225.808 45.6402C226.277 46.2261 226.895 46.5191 227.663 46.5191C228.445 46.5191 229.079 46.2392 229.568 45.6793C230.056 45.1129 230.3 44.3902 230.3 43.5113ZM239.929 48.3257C238.386 48.3257 237.152 47.8602 236.228 46.9293C235.31 45.9918 234.851 44.7515 234.851 43.2086C234.851 41.5289 235.329 40.217 236.286 39.273C237.25 38.329 238.546 37.857 240.173 37.857C241.736 37.857 242.953 38.316 243.826 39.2339C244.698 40.1519 245.134 41.4247 245.134 43.0523C245.134 44.6474 244.662 45.9267 243.718 46.8902C242.781 47.8472 241.518 48.3257 239.929 48.3257ZM240.036 39.6636C239.151 39.6636 238.451 39.9729 237.937 40.5914C237.423 41.2099 237.165 42.0627 237.165 43.15C237.165 44.1981 237.426 45.025 237.947 45.6304C238.467 46.2294 239.164 46.5289 240.036 46.5289C240.928 46.5289 241.612 46.2326 242.087 45.6402C242.569 45.0477 242.81 44.2047 242.81 43.1109C242.81 42.0106 242.569 41.161 242.087 40.5621C241.612 39.9631 240.928 39.6636 240.036 39.6636ZM251.882 48.3257C250.339 48.3257 249.106 47.8602 248.181 46.9293C247.263 45.9918 246.804 44.7515 246.804 43.2086C246.804 41.5289 247.283 40.217 248.24 39.273C249.203 38.329 250.499 37.857 252.126 37.857C253.689 37.857 254.906 38.316 255.779 39.2339C256.651 40.1519 257.087 41.4247 257.087 43.0523C257.087 44.6474 256.615 45.9267 255.671 46.8902C254.734 47.8472 253.471 48.3257 251.882 48.3257ZM251.99 39.6636C251.104 39.6636 250.404 39.9729 249.89 40.5914C249.376 41.2099 249.119 42.0627 249.119 43.15C249.119 44.1981 249.379 45.025 249.9 45.6304C250.421 46.2294 251.117 46.5289 251.99 46.5289C252.882 46.5289 253.565 46.2326 254.04 45.6402C254.522 45.0477 254.763 44.2047 254.763 43.1109C254.763 42.0106 254.522 41.161 254.04 40.5621C253.565 39.9631 252.882 39.6636 251.99 39.6636ZM268.503 47.2906C268.503 50.9625 266.658 52.7984 262.966 52.7984C261.664 52.7984 260.528 52.5803 259.558 52.1441V50.0738C260.652 50.6988 261.69 51.0113 262.673 51.0113C265.05 51.0113 266.238 49.8427 266.238 47.5054V46.4117H266.199C265.45 47.6877 264.324 48.3257 262.82 48.3257C261.602 48.3257 260.619 47.883 259.87 46.9976C259.128 46.1057 258.757 44.911 258.757 43.4136C258.757 41.7144 259.158 40.3635 259.958 39.3609C260.759 38.3583 261.859 37.857 263.259 37.857C264.581 37.857 265.561 38.3974 266.199 39.4781H266.238V38.0914H268.503V47.2906ZM266.257 43.5113V42.2125C266.257 41.5093 266.023 40.9104 265.554 40.4156C265.092 39.9143 264.512 39.6636 263.816 39.6636C262.956 39.6636 262.283 39.9826 261.794 40.6207C261.313 41.2522 261.072 42.1376 261.072 43.2769C261.072 44.26 261.303 45.0477 261.765 45.6402C262.234 46.2261 262.852 46.5191 263.62 46.5191C264.402 46.5191 265.036 46.2392 265.525 45.6793C266.013 45.1129 266.257 44.3902 266.257 43.5113ZM273.728 48.0914H271.453V33.2867H273.728V48.0914ZM285.154 43.7066H278.337C278.363 44.6311 278.647 45.344 279.187 45.8453C279.734 46.3466 280.482 46.5972 281.433 46.5972C282.501 46.5972 283.481 46.2782 284.372 45.6402V47.4664C283.461 48.0393 282.257 48.3257 280.759 48.3257C279.288 48.3257 278.132 47.8733 277.292 46.9683C276.459 46.0569 276.042 44.7776 276.042 43.1304C276.042 41.5744 276.501 40.3082 277.419 39.3316C278.344 38.3485 279.49 37.857 280.857 37.857C282.224 37.857 283.282 38.2964 284.031 39.1754C284.779 40.0543 285.154 41.275 285.154 42.8375V43.7066ZM282.966 42.105C282.96 41.2912 282.768 40.6597 282.39 40.2105C282.012 39.7548 281.492 39.5269 280.828 39.5269C280.176 39.5269 279.623 39.7645 279.167 40.2398C278.718 40.7151 278.441 41.3368 278.337 42.105H282.966Z" fill="black"/>
</g>
<g clip-path="url(#clip0)">
<path d="M62.6073 17.2666C62.6073 16.28 62.525 15.56 62.347 14.8133H50.7705V19.2666H57.5656C57.4287 20.3733 56.6889 22.04 55.0449 23.1599L55.0218 23.309L58.6821 26.0687L58.9357 26.0933C61.2646 23.9999 62.6073 20.9199 62.6073 17.2666" fill="#4285F4"/>
<path d="M50.7698 29C54.0988 29 56.8936 27.9333 58.9349 26.0933L55.0441 23.1599C54.0029 23.8666 52.6055 24.3599 50.7698 24.3599C47.5092 24.3599 44.7418 22.2667 43.7554 19.3733L43.6108 19.3853L39.8048 22.2519L39.755 22.3866C41.7826 26.3066 45.9474 29 50.7698 29Z" fill="#34A853"/>
<path d="M43.7561 19.3734C43.4958 18.6267 43.3452 17.8266 43.3452 17C43.3452 16.1733 43.4958 15.3733 43.7424 14.6267L43.7355 14.4677L39.8818 11.5549L39.7558 11.6133C38.9201 13.24 38.4406 15.0667 38.4406 17C38.4406 18.9333 38.9201 20.7599 39.7558 22.3866L43.7561 19.3734" fill="#FBBC05"/>
<path d="M50.7698 9.63996C53.085 9.63996 54.6468 10.6133 55.5373 11.4267L59.0171 8.12C56.88 6.18667 54.0988 5 50.7698 5C45.9474 5 41.7826 7.69331 39.755 11.6133L43.7417 14.6266C44.7418 11.7333 47.5092 9.63996 50.7698 9.63996" fill="#EB4335"/>
</g>
<defs>
<filter id="filter0_d" x="0.197845" y="0.522827" width="357.722" height="84.2745" filterUnits="userSpaceOnUse" color-interpolation-filters="sRGB">
<feFlood flood-opacity="0" result="BackgroundImageFix"/>
<feColorMatrix in="SourceAlpha" type="matrix" values="0 0 0 0 0 0 0 0 0 0 0 0 0 0 0 0 0 0 127 0" result="hardAlpha"/>
<feOffset dx="-1" dy="1"/>
<feGaussianBlur stdDeviation="5"/>
<feColorMatrix type="matrix" values="0 0 0 0 1 0 0 0 0 0.870588 0 0 0 0 0.411765 0 0 0 0.15 0"/>
<feBlend mode="normal" in2="BackgroundImageFix" result="effect1_dropShadow"/>
<feBlend mode="normal" in="SourceGraphic" in2="effect1_dropShadow" result="shape"/>
</filter>
<filter id="filter1_d" x="107.562" y="24.2867" width="186.592" height="39.5117" filterUnits="userSpaceOnUse" color-interpolation-filters="sRGB">
<feFlood flood-opacity="0" result="BackgroundImageFix"/>
<feColorMatrix in="SourceAlpha" type="matrix" values="0 0 0 0 0 0 0 0 0 0 0 0 0 0 0 0 0 0 127 0" result="hardAlpha"/>
<feOffset dx="-1" dy="1"/>
<feGaussianBlur stdDeviation="5"/>
<feColorMatrix type="matrix" values="0 0 0 0 0.105882 0 0 0 0 0.101961 0 0 0 0 0.25098 0 0 0 0.15 0"/>
<feBlend mode="normal" in2="BackgroundImageFix" result="effect1_dropShadow"/>
<feBlend mode="normal" in="SourceGraphic" in2="effect1_dropShadow" result="shape"/>
</filter>
<clipPath id="clip0">
<rect width="25" height="24" fill="white" transform="translate(38.0239 5)"/>
</clipPath>
</defs>
</svg>
