<svg width="359" height="85" viewBox="0 0 359 85" fill="none" xmlns="http://www.w3.org/2000/svg">
<g filter="url(#filter0_d)">
<rect x="11.8642" y="9.01526" width="337.722" height="64.2744" rx="15" fill="#00FFCB"/>
</g>
<g filter="url(#filter1_d)">
<path d="M122.834 46.4979C121.78 47.0447 120.468 47.3182 118.899 47.3182C116.868 47.3182 115.24 46.6769 114.016 45.3943C112.792 44.1118 112.18 42.4289 112.18 40.3455C112.18 38.1059 112.867 36.296 114.241 34.9158C115.621 33.5356 117.362 32.8455 119.465 32.8455C120.819 32.8455 121.943 33.0376 122.834 33.4217V35.7264C121.89 35.1665 120.849 34.8865 119.709 34.8865C118.193 34.8865 116.962 35.3716 116.018 36.3416C115.081 37.3117 114.612 38.6072 114.612 40.2283C114.612 41.7713 115.051 43.0018 115.93 43.9197C116.809 44.8312 117.965 45.2869 119.397 45.2869C120.719 45.2869 121.864 44.9744 122.834 44.3494V46.4979ZM131.038 39.242C130.764 39.0272 130.37 38.9197 129.856 38.9197C129.185 38.9197 128.625 39.2225 128.176 39.8279C127.727 40.4334 127.502 41.257 127.502 42.2986V47.0838H125.237V37.0838H127.502V39.1443H127.542C127.763 38.4412 128.101 37.8943 128.557 37.5037C129.019 37.1066 129.534 36.908 130.1 36.908C130.51 36.908 130.823 36.9699 131.038 37.0936V39.242ZM140.93 42.699H134.114C134.14 43.6235 134.423 44.3364 134.963 44.8377C135.51 45.339 136.259 45.5897 137.209 45.5897C138.277 45.5897 139.257 45.2707 140.149 44.6326V46.4588C139.237 47.0317 138.033 47.3182 136.536 47.3182C135.064 47.3182 133.909 46.8657 133.069 45.9608C132.236 45.0493 131.819 43.77 131.819 42.1229C131.819 40.5669 132.278 39.3006 133.196 38.324C134.12 37.341 135.266 36.8494 136.633 36.8494C138 36.8494 139.058 37.2889 139.807 38.1678C140.556 39.0467 140.93 40.2674 140.93 41.8299V42.699ZM138.743 41.0975C138.736 40.2837 138.544 39.6522 138.167 39.2029C137.789 38.7472 137.268 38.5193 136.604 38.5193C135.953 38.5193 135.4 38.757 134.944 39.2322C134.495 39.7075 134.218 40.3292 134.114 41.0975H138.743ZM150.764 47.0838H148.567V45.5213H148.528C147.838 46.7192 146.825 47.3182 145.491 47.3182C144.508 47.3182 143.736 47.0512 143.176 46.5174C142.623 45.9835 142.346 45.2772 142.346 44.3983C142.346 42.5102 143.433 41.41 145.608 41.0975L148.577 40.6776C148.577 39.2518 147.9 38.5389 146.545 38.5389C145.354 38.5389 144.28 38.949 143.323 39.7693V37.7869C144.377 37.1619 145.595 36.8494 146.975 36.8494C149.501 36.8494 150.764 38.0929 150.764 40.5799V47.0838ZM148.577 42.1717L146.477 42.4647C145.826 42.5493 145.334 42.7088 145.002 42.9432C144.677 43.171 144.514 43.5747 144.514 44.1541C144.514 44.5773 144.664 44.9256 144.963 45.199C145.269 45.466 145.676 45.5994 146.184 45.5994C146.874 45.5994 147.444 45.3585 147.893 44.8768C148.349 44.3885 148.577 43.7765 148.577 43.0408V42.1717ZM158.811 46.9764C158.368 47.1977 157.786 47.3084 157.063 47.3084C155.123 47.3084 154.153 46.3774 154.153 44.5154V38.8611H152.483V37.0838H154.153V34.7693L156.418 34.1248V37.0838H158.811V38.8611H156.418V43.8611C156.418 44.4536 156.526 44.8768 156.741 45.1307C156.956 45.3846 157.314 45.5115 157.815 45.5115C158.199 45.5115 158.531 45.4009 158.811 45.1795V46.9764ZM169.114 42.699H162.297C162.323 43.6235 162.607 44.3364 163.147 44.8377C163.694 45.339 164.443 45.5897 165.393 45.5897C166.461 45.5897 167.441 45.2707 168.333 44.6326V46.4588C167.421 47.0317 166.217 47.3182 164.719 47.3182C163.248 47.3182 162.092 46.8657 161.252 45.9608C160.419 45.0493 160.002 43.77 160.002 42.1229C160.002 40.5669 160.461 39.3006 161.379 38.324C162.304 37.341 163.45 36.8494 164.817 36.8494C166.184 36.8494 167.242 37.2889 167.991 38.1678C168.739 39.0467 169.114 40.2674 169.114 41.8299V42.699ZM166.926 41.0975C166.92 40.2837 166.728 39.6522 166.35 39.2029C165.972 38.7472 165.452 38.5193 164.788 38.5193C164.137 38.5193 163.583 38.757 163.127 39.2322C162.678 39.7075 162.402 40.3292 162.297 41.0975H166.926ZM188.538 47.0838H185.989L184.729 43.5193H179.221L178.01 47.0838H175.471L180.715 33.0799H183.333L188.538 47.0838ZM184.114 41.6248L182.17 36.0389C182.112 35.8566 182.05 35.5636 181.985 35.16H181.946C181.887 35.5311 181.822 35.824 181.75 36.0389L179.827 41.6248H184.114ZM197.375 46.6248C196.575 47.0871 195.627 47.3182 194.534 47.3182C193.049 47.3182 191.851 46.8559 190.94 45.9315C190.028 45.0005 189.573 43.796 189.573 42.3182C189.573 40.671 190.061 39.3494 191.038 38.3533C192.021 37.3507 193.333 36.8494 194.973 36.8494C195.885 36.8494 196.689 37.0089 197.385 37.3279V39.4373C196.689 38.9165 195.946 38.6561 195.159 38.6561C194.202 38.6561 193.417 38.9816 192.805 39.6326C192.193 40.2772 191.887 41.1235 191.887 42.1717C191.887 43.2068 192.174 44.0239 192.747 44.6229C193.326 45.2218 194.101 45.5213 195.071 45.5213C195.885 45.5213 196.653 45.2316 197.375 44.6522V46.6248ZM206.79 46.6248C205.989 47.0871 205.042 47.3182 203.948 47.3182C202.463 47.3182 201.265 46.8559 200.354 45.9315C199.443 45.0005 198.987 43.796 198.987 42.3182C198.987 40.671 199.475 39.3494 200.452 38.3533C201.435 37.3507 202.747 36.8494 204.387 36.8494C205.299 36.8494 206.103 37.0089 206.799 37.3279V39.4373C206.103 38.9165 205.361 38.6561 204.573 38.6561C203.616 38.6561 202.831 38.9816 202.219 39.6326C201.607 40.2772 201.301 41.1235 201.301 42.1717C201.301 43.2068 201.588 44.0239 202.161 44.6229C202.74 45.2218 203.515 45.5213 204.485 45.5213C205.299 45.5213 206.067 45.2316 206.79 44.6522V46.6248ZM213.479 47.3182C211.936 47.3182 210.702 46.8527 209.778 45.9217C208.86 44.9842 208.401 43.744 208.401 42.201C208.401 40.5213 208.879 39.2095 209.836 38.2654C210.8 37.3214 212.096 36.8494 213.723 36.8494C215.286 36.8494 216.503 37.3084 217.375 38.2264C218.248 39.1443 218.684 40.4171 218.684 42.0447C218.684 43.6398 218.212 44.9191 217.268 45.8826C216.331 46.8397 215.068 47.3182 213.479 47.3182ZM213.586 38.6561C212.701 38.6561 212.001 38.9653 211.487 39.5838C210.972 40.2023 210.715 41.0552 210.715 42.1424C210.715 43.1906 210.976 44.0174 211.497 44.6229C212.017 45.2218 212.714 45.5213 213.586 45.5213C214.478 45.5213 215.162 45.2251 215.637 44.6326C216.119 44.0402 216.36 43.1971 216.36 42.1033C216.36 41.0031 216.119 40.1535 215.637 39.5545C215.162 38.9555 214.478 38.6561 213.586 38.6561ZM229.719 47.0838H227.454V45.5018H227.415C226.757 46.7127 225.735 47.3182 224.348 47.3182C221.985 47.3182 220.803 45.8989 220.803 43.0604V37.0838H223.069V42.826C223.069 44.6229 223.762 45.5213 225.149 45.5213C225.819 45.5213 226.37 45.2739 226.799 44.7791C227.236 44.2843 227.454 43.6365 227.454 42.8358V37.0838H229.719V47.0838ZM241.584 47.0838H239.319V41.449C239.319 39.5805 238.658 38.6463 237.336 38.6463C236.646 38.6463 236.077 38.9067 235.627 39.4276C235.178 39.9419 234.954 40.5929 234.954 41.3807V47.0838H232.678V37.0838H234.954V38.744H234.993C235.741 37.4809 236.822 36.8494 238.235 36.8494C239.322 36.8494 240.152 37.2042 240.725 37.9139C241.298 38.617 241.584 39.6359 241.584 40.9705V47.0838ZM249.631 46.9764C249.189 47.1977 248.606 47.3084 247.883 47.3084C245.943 47.3084 244.973 46.3774 244.973 44.5154V38.8611H243.303V37.0838H244.973V34.7693L247.239 34.1248V37.0838H249.631V38.8611H247.239V43.8611C247.239 44.4536 247.346 44.8768 247.561 45.1307C247.776 45.3846 248.134 45.5115 248.635 45.5115C249.019 45.5115 249.351 45.4009 249.631 45.1795V46.9764Z" fill="black"/>
</g>
<defs>
<filter id="filter0_d" x="0.864243" y="0.0152588" width="357.722" height="84.2744" filterUnits="userSpaceOnUse" color-interpolation-filters="sRGB">
<feFlood flood-opacity="0" result="BackgroundImageFix"/>
<feColorMatrix in="SourceAlpha" type="matrix" values="0 0 0 0 0 0 0 0 0 0 0 0 0 0 0 0 0 0 127 0" result="hardAlpha"/>
<feOffset dx="-1" dy="1"/>
<feGaussianBlur stdDeviation="5"/>
<feColorMatrix type="matrix" values="0 0 0 0 1 0 0 0 0 0.870588 0 0 0 0 0.411765 0 0 0 0.15 0"/>
<feBlend mode="normal" in2="BackgroundImageFix" result="effect1_dropShadow"/>
<feBlend mode="normal" in="SourceGraphic" in2="effect1_dropShadow" result="shape"/>
</filter>
<filter id="filter1_d" x="101.18" y="23.8455" width="157.451" height="34.4727" filterUnits="userSpaceOnUse" color-interpolation-filters="sRGB">
<feFlood flood-opacity="0" result="BackgroundImageFix"/>
<feColorMatrix in="SourceAlpha" type="matrix" values="0 0 0 0 0 0 0 0 0 0 0 0 0 0 0 0 0 0 127 0" result="hardAlpha"/>
<feOffset dx="-1" dy="1"/>
<feGaussianBlur stdDeviation="5"/>
<feColorMatrix type="matrix" values="0 0 0 0 0.105882 0 0 0 0 0.101961 0 0 0 0 0.25098 0 0 0 0.15 0"/>
<feBlend mode="normal" in2="BackgroundImageFix" result="effect1_dropShadow"/>
<feBlend mode="normal" in="SourceGraphic" in2="effect1_dropShadow" result="shape"/>
</filter>
</defs>
</svg>
