<svg width="28" height="26" viewBox="0 0 28 26" fill="none" xmlns="http://www.w3.org/2000/svg">
<path d="M24.4875 7C26.1065 9.77885 26.9161 11.1683 26.9922 12.6877C27.0026 12.8958 27.0026 13.1042 26.9922 13.3123C26.9161 14.8317 26.1065 16.2211 24.4875 19C22.8684 21.7789 22.0589 23.1683 20.769 23.9933C20.5924 24.1063 20.4102 24.2105 20.2231 24.3056C18.8572 25 17.2381 25 14 25C10.7619 25 9.14281 25 7.77686 24.3056C7.58979 24.2105 7.4076 24.1063 7.23096 23.9933C5.94113 23.1683 5.1316 21.7789 3.51254 19C1.89348 16.2211 1.08395 14.8317 1.00782 13.3123C0.997394 13.1042 0.997394 12.8958 1.00782 12.6877C1.08395 11.1683 1.89348 9.77885 3.51254 7C5.1316 4.22115 5.94113 2.83172 7.23096 2.00669C7.4076 1.8937 7.58979 1.78947 7.77686 1.69437C9.14282 1 10.7619 1 14 1C17.2381 1 18.8572 1 20.2231 1.69437C20.4102 1.78947 20.5924 1.8937 20.769 2.00669C22.0589 2.83172 22.8684 4.22115 24.4875 7Z" stroke="#00FFCB" stroke-width="1.5"/>
<path d="M11.478 11.8712C11.7361 11.25 12.234 10.7567 12.8609 10.5009L16.2637 9.11239C17.3086 8.68607 18.3534 9.72144 17.9232 10.7568L16.522 14.1288C16.2639 14.75 15.766 15.2433 15.1391 15.4991L11.7363 16.8876C10.6914 17.3139 9.64657 16.2786 10.0768 15.2432L11.478 11.8712Z" stroke="#00FFCB" stroke-width="1.5"/>
</svg>
