<svg width="26" height="26" viewBox="0 0 26 26" fill="none" xmlns="http://www.w3.org/2000/svg">
<path d="M2.43763 17.1572L3.15238 16.9299L2.43763 17.1572ZM1.16725 9.94578L1.88971 10.1471L1.16725 9.94578ZM6.4721 4.46716L6.02498 3.86501L6.4721 4.46716ZM1.29684 9.53814L2.00294 9.79099L1.29684 9.53814ZM5.89665 24.0064L5.47207 24.6246L5.89665 24.0064ZM5.55736 23.7544L5.08835 24.3397L5.55736 23.7544ZM23.5624 17.1572L22.8476 16.9299L23.5624 17.1572ZM20.4426 23.7544L20.9117 24.3397L20.4426 23.7544ZM20.1034 24.0064L20.5279 24.6246L20.1034 24.0064ZM19.5279 4.46716L19.975 3.86501L19.5279 4.46716ZM24.7032 9.53814L23.9971 9.79099L24.7032 9.53814ZM24.8328 9.94578L24.1103 10.1471L24.8328 9.94578ZM13.2097 1.00393L13.1816 1.7534L13.2097 1.00393ZM12.7903 1.00393L12.8184 1.7534L12.7903 1.00393ZM10.7121 18.7454C10.2978 18.7454 9.96205 19.0812 9.96205 19.4954C9.96205 19.9097 10.2978 20.2454 10.7121 20.2454V18.7454ZM15.2879 20.2454C15.7022 20.2454 16.0379 19.9097 16.0379 19.4954C16.0379 19.0812 15.7022 18.7454 15.2879 18.7454V20.2454ZM3.15238 16.9299C2.5649 15.0821 2.14292 13.7515 1.92111 12.669C1.70275 11.6032 1.69459 10.8472 1.88971 10.1471L0.444781 9.74442C0.162352 10.7578 0.206747 11.7748 0.45164 12.9701C0.693094 14.1485 1.14508 15.567 1.72289 17.3844L3.15238 16.9299ZM6.02498 3.86501C4.51269 4.98793 3.32991 5.8649 2.45557 6.67438C1.56785 7.49626 0.945521 8.29456 0.590747 9.2853L2.00294 9.79099C2.24727 9.10867 2.68718 8.50411 3.47462 7.77508C4.27545 7.03366 5.38074 6.21167 6.91921 5.06931L6.02498 3.86501ZM1.88971 10.1471C1.92319 10.027 1.96096 9.90822 2.00294 9.79099L0.590747 9.2853C0.536609 9.43649 0.487922 9.58963 0.444781 9.74442L1.88971 10.1471ZM13 24.25C11.0979 24.25 9.73214 24.2489 8.65921 24.1303C7.60468 24.0138 6.90605 23.7897 6.32122 23.3881L5.47207 24.6246C6.33417 25.2166 7.30173 25.4894 8.49441 25.6213C9.66868 25.7511 11.1312 25.75 13 25.75V24.25ZM1.72289 17.3844C2.30066 19.2017 2.75083 20.6209 3.23337 21.7196C3.7226 22.8336 4.2728 23.6861 5.08835 24.3397L6.02637 23.1692C5.47012 22.7234 5.04311 22.11 4.60675 21.1164C4.1637 20.1077 3.7399 18.7779 3.15238 16.9299L1.72289 17.3844ZM6.32122 23.3881C6.22039 23.3189 6.12204 23.2458 6.02637 23.1692L5.08835 24.3397C5.21277 24.4394 5.34077 24.5344 5.47207 24.6246L6.32122 23.3881ZM22.8476 16.9299C22.2601 18.7779 21.8363 20.1077 21.3933 21.1164C20.9569 22.11 20.5299 22.7234 19.9736 23.1692L20.9117 24.3397C21.7272 23.6861 22.2774 22.8336 22.7666 21.7196C23.2492 20.6209 23.6993 19.2017 24.2771 17.3844L22.8476 16.9299ZM13 25.75C14.8688 25.75 16.3313 25.7511 17.5056 25.6213C18.6983 25.4894 19.6658 25.2166 20.5279 24.6246L19.6788 23.3881C19.094 23.7897 18.3953 24.0138 17.3408 24.1303C16.2679 24.2489 14.9021 24.25 13 24.25V25.75ZM19.9736 23.1692C19.878 23.2458 19.7796 23.3189 19.6788 23.3881L20.5279 24.6246C20.6592 24.5344 20.7872 24.4394 20.9117 24.3397L19.9736 23.1692ZM19.0808 5.06931C20.6193 6.21167 21.7246 7.03366 22.5254 7.77508C23.3128 8.50411 23.7527 9.10867 23.9971 9.79099L25.4093 9.2853C25.0545 8.29456 24.4321 7.49626 23.5444 6.67438C22.6701 5.8649 21.4873 4.98793 19.975 3.86501L19.0808 5.06931ZM24.2771 17.3844C24.8549 15.567 25.3069 14.1485 25.5484 12.9701C25.7933 11.7748 25.8376 10.7578 25.5552 9.74442L24.1103 10.1471C24.3054 10.8472 24.2973 11.6032 24.0789 12.669C23.8571 13.7515 23.4351 15.0821 22.8476 16.9299L24.2771 17.3844ZM23.9971 9.79099C24.039 9.90822 24.0768 10.027 24.1103 10.1471L25.5552 9.74442C25.5121 9.58963 25.4634 9.43649 25.4093 9.2853L23.9971 9.79099ZM19.975 3.86501C18.4629 2.74221 17.2811 1.86339 16.2572 1.26346C15.2182 0.654692 14.2784 0.29347 13.2378 0.254456L13.1816 1.7534C13.883 1.7797 14.5769 2.01746 15.4989 2.55766C16.4359 3.10669 17.5422 3.92684 19.0808 5.06931L19.975 3.86501ZM6.91921 5.06931C8.45785 3.92684 9.56412 3.10669 10.5011 2.55766C11.4231 2.01746 12.117 1.7797 12.8184 1.7534L12.7622 0.254456C11.7216 0.29347 10.7818 0.654692 9.74281 1.26346C8.71892 1.86339 7.53712 2.74221 6.02498 3.86501L6.91921 5.06931ZM13.2378 0.254456C13.0793 0.248515 12.9207 0.248515 12.7622 0.254456L12.8184 1.7534C12.9394 1.74887 13.0606 1.74887 13.1816 1.7534L13.2378 0.254456ZM10.7121 20.2454H15.2879V18.7454H10.7121V20.2454Z" fill="#00FFCB"/>
</svg>
