<svg width="146" height="72" viewBox="0 0 146 72" fill="none" xmlns="http://www.w3.org/2000/svg">
<path d="M18.4375 7.99609L14.4824 22H12.5586L9.67773 11.7656C9.55404 11.3294 9.47917 10.8542 9.45312 10.3398H9.41406C9.375 10.8216 9.29036 11.2904 9.16016 11.7461L6.25977 22H4.35547L0.253906 7.99609H2.06055L5.03906 18.7383C5.16276 19.1875 5.24089 19.6562 5.27344 20.1445H5.32227C5.35482 19.7995 5.45573 19.3307 5.625 18.7383L8.7207 7.99609H10.293L13.2617 18.8164C13.3659 19.1875 13.444 19.6237 13.4961 20.125H13.5352C13.5612 19.7865 13.6491 19.3372 13.7988 18.7773L16.6602 7.99609H18.4375ZM27.5684 17.4004H20.5078C20.5339 18.5137 20.8333 19.373 21.4062 19.9785C21.9792 20.584 22.7669 20.8867 23.7695 20.8867C24.8958 20.8867 25.931 20.5156 26.875 19.7734V21.2773C25.9961 21.9154 24.834 22.2344 23.3887 22.2344C21.9759 22.2344 20.8659 21.7819 20.0586 20.877C19.2513 19.9655 18.8477 18.6862 18.8477 17.0391C18.8477 15.4831 19.2871 14.2168 20.166 13.2402C21.0514 12.2572 22.1484 11.7656 23.457 11.7656C24.7656 11.7656 25.778 12.1888 26.4941 13.0352C27.2103 13.8815 27.5684 15.0566 27.5684 16.5605V17.4004ZM25.9277 16.043C25.9212 15.1185 25.6966 14.3991 25.2539 13.8848C24.8177 13.3704 24.209 13.1133 23.4277 13.1133C22.6725 13.1133 22.0312 13.3835 21.5039 13.9238C20.9766 14.4642 20.651 15.1706 20.5273 16.043H25.9277ZM31.6016 22H30V7.19531H31.6016V22ZM41.6602 21.541C40.8919 22.0033 39.9805 22.2344 38.9258 22.2344C37.5 22.2344 36.3477 21.7721 35.4688 20.8477C34.5964 19.9167 34.1602 18.7122 34.1602 17.2344C34.1602 15.5872 34.6322 14.2656 35.5762 13.2695C36.5202 12.2669 37.7799 11.7656 39.3555 11.7656C40.2344 11.7656 41.0091 11.9284 41.6797 12.2539V13.8945C40.9375 13.3737 40.1432 13.1133 39.2969 13.1133C38.2747 13.1133 37.4349 13.4811 36.7773 14.2168C36.1263 14.946 35.8008 15.9062 35.8008 17.0977C35.8008 18.2695 36.1068 19.194 36.7188 19.8711C37.3372 20.5482 38.1641 20.8867 39.1992 20.8867C40.0716 20.8867 40.8919 20.597 41.6602 20.0176V21.541ZM48.2617 22.2344C46.7839 22.2344 45.6022 21.7689 44.7168 20.8379C43.8379 19.9004 43.3984 18.6602 43.3984 17.1172C43.3984 15.4375 43.8574 14.1257 44.7754 13.1816C45.6934 12.2376 46.9336 11.7656 48.4961 11.7656C49.987 11.7656 51.1491 12.2246 51.9824 13.1426C52.8223 14.0605 53.2422 15.3333 53.2422 16.9609C53.2422 18.556 52.7897 19.8353 51.8848 20.7988C50.9863 21.7559 49.7786 22.2344 48.2617 22.2344ZM48.3789 13.1133C47.3503 13.1133 46.5365 13.4648 45.9375 14.168C45.3385 14.8646 45.0391 15.8281 45.0391 17.0586C45.0391 18.2435 45.3418 19.1777 45.9473 19.8613C46.5527 20.5449 47.3633 20.8867 48.3789 20.8867C49.4141 20.8867 50.2083 20.5514 50.7617 19.8809C51.3216 19.2103 51.6016 18.2565 51.6016 17.0195C51.6016 15.7695 51.3216 14.806 50.7617 14.1289C50.2083 13.4518 49.4141 13.1133 48.3789 13.1133ZM70 22H68.3984V16.2578C68.3984 15.151 68.2259 14.3503 67.8809 13.8555C67.5423 13.3607 66.9694 13.1133 66.1621 13.1133C65.4785 13.1133 64.8958 13.4258 64.4141 14.0508C63.9388 14.6758 63.7012 15.4245 63.7012 16.2969V22H62.0996V16.0625C62.0996 14.0964 61.3411 13.1133 59.8242 13.1133C59.1211 13.1133 58.5417 13.4095 58.0859 14.002C57.6302 14.5879 57.4023 15.3529 57.4023 16.2969V22H55.8008V12H57.4023V13.582H57.4414C58.151 12.3711 59.1862 11.7656 60.5469 11.7656C61.2305 11.7656 61.8262 11.9577 62.334 12.3418C62.8418 12.7194 63.1901 13.2174 63.3789 13.8359C64.1211 12.4557 65.2279 11.7656 66.6992 11.7656C68.8997 11.7656 70 13.123 70 15.8379V22ZM81.0645 17.4004H74.0039C74.0299 18.5137 74.3294 19.373 74.9023 19.9785C75.4753 20.584 76.263 20.8867 77.2656 20.8867C78.3919 20.8867 79.4271 20.5156 80.3711 19.7734V21.2773C79.4922 21.9154 78.3301 22.2344 76.8848 22.2344C75.472 22.2344 74.362 21.7819 73.5547 20.877C72.7474 19.9655 72.3438 18.6862 72.3438 17.0391C72.3438 15.4831 72.7832 14.2168 73.6621 13.2402C74.5475 12.2572 75.6445 11.7656 76.9531 11.7656C78.2617 11.7656 79.2741 12.1888 79.9902 13.0352C80.7064 13.8815 81.0645 15.0566 81.0645 16.5605V17.4004ZM79.4238 16.043C79.4173 15.1185 79.1927 14.3991 78.75 13.8848C78.3138 13.3704 77.7051 13.1133 76.9238 13.1133C76.1686 13.1133 75.5273 13.3835 75 13.9238C74.4727 14.4642 74.1471 15.1706 74.0234 16.043H79.4238ZM89.1992 22V7.99609H93.1836C94.3945 7.99609 95.3548 8.29232 96.0645 8.88477C96.7741 9.47721 97.1289 10.2487 97.1289 11.1992C97.1289 11.9935 96.9141 12.6836 96.4844 13.2695C96.0547 13.8555 95.4622 14.2721 94.707 14.5195V14.5586C95.651 14.6693 96.4062 15.0273 96.9727 15.6328C97.5391 16.2318 97.8223 17.013 97.8223 17.9766C97.8223 19.1745 97.3926 20.1445 96.5332 20.8867C95.6738 21.6289 94.5898 22 93.2812 22H89.1992ZM90.8398 9.48047V14.002H92.5195C93.418 14.002 94.1243 13.7871 94.6387 13.3574C95.153 12.9212 95.4102 12.3092 95.4102 11.5215C95.4102 10.1608 94.515 9.48047 92.7246 9.48047H90.8398ZM90.8398 15.4766V20.5156H93.0664C94.0299 20.5156 94.7754 20.2878 95.3027 19.832C95.8366 19.3763 96.1035 18.7513 96.1035 17.957C96.1035 16.3034 94.9772 15.4766 92.7246 15.4766H90.8398ZM107.607 22H106.006V20.4375H105.967C105.27 21.6354 104.245 22.2344 102.891 22.2344C101.895 22.2344 101.113 21.9707 100.547 21.4434C99.987 20.916 99.707 20.2161 99.707 19.3438C99.707 17.4753 100.807 16.388 103.008 16.082L106.006 15.6621C106.006 13.9629 105.319 13.1133 103.945 13.1133C102.741 13.1133 101.654 13.5234 100.684 14.3438V12.7031C101.667 12.0781 102.799 11.7656 104.082 11.7656C106.432 11.7656 107.607 13.0091 107.607 15.4961V22ZM106.006 16.9414L103.594 17.2734C102.852 17.3776 102.292 17.5632 101.914 17.8301C101.536 18.0905 101.348 18.556 101.348 19.2266C101.348 19.7148 101.52 20.1152 101.865 20.4277C102.217 20.7337 102.682 20.8867 103.262 20.8867C104.056 20.8867 104.71 20.61 105.225 20.0566C105.745 19.4967 106.006 18.7904 106.006 17.9375V16.9414ZM117.441 21.541C116.673 22.0033 115.762 22.2344 114.707 22.2344C113.281 22.2344 112.129 21.7721 111.25 20.8477C110.378 19.9167 109.941 18.7122 109.941 17.2344C109.941 15.5872 110.413 14.2656 111.357 13.2695C112.301 12.2669 113.561 11.7656 115.137 11.7656C116.016 11.7656 116.79 11.9284 117.461 12.2539V13.8945C116.719 13.3737 115.924 13.1133 115.078 13.1133C114.056 13.1133 113.216 13.4811 112.559 14.2168C111.908 14.946 111.582 15.9062 111.582 17.0977C111.582 18.2695 111.888 19.194 112.5 19.8711C113.118 20.5482 113.945 20.8867 114.98 20.8867C115.853 20.8867 116.673 20.597 117.441 20.0176V21.541ZM128.164 22H125.918L121.504 17.1953H121.465V22H119.863V7.19531H121.465V16.5801H121.504L125.703 12H127.803L123.164 16.8242L128.164 22ZM131.846 7.99609L131.66 18.0547H130.342L130.166 7.99609H131.846ZM131.025 22.1758C130.726 22.1758 130.469 22.0716 130.254 21.8633C130.046 21.6549 129.941 21.401 129.941 21.1016C129.941 20.8021 130.046 20.5482 130.254 20.3398C130.469 20.125 130.726 20.0176 131.025 20.0176C131.318 20.0176 131.572 20.125 131.787 20.3398C132.002 20.5482 132.109 20.8021 132.109 21.1016C132.109 21.401 132.002 21.6549 131.787 21.8633C131.572 22.0716 131.318 22.1758 131.025 22.1758ZM137.529 7.99609L137.344 18.0547H136.025L135.85 7.99609H137.529ZM136.709 22.1758C136.41 22.1758 136.152 22.0716 135.938 21.8633C135.729 21.6549 135.625 21.401 135.625 21.1016C135.625 20.8021 135.729 20.5482 135.938 20.3398C136.152 20.125 136.41 20.0176 136.709 20.0176C137.002 20.0176 137.256 20.125 137.471 20.3398C137.686 20.5482 137.793 20.8021 137.793 21.1016C137.793 21.401 137.686 21.6549 137.471 21.8633C137.256 22.0716 137.002 22.1758 136.709 22.1758ZM143.213 7.99609L143.027 18.0547H141.709L141.533 7.99609H143.213ZM142.393 22.1758C142.093 22.1758 141.836 22.0716 141.621 21.8633C141.413 21.6549 141.309 21.401 141.309 21.1016C141.309 20.8021 141.413 20.5482 141.621 20.3398C141.836 20.125 142.093 20.0176 142.393 20.0176C142.686 20.0176 142.939 20.125 143.154 20.3398C143.369 20.5482 143.477 20.8021 143.477 21.1016C143.477 21.401 143.369 21.6549 143.154 21.8633C142.939 22.0716 142.686 22.1758 142.393 22.1758Z" fill="#050522"/>
<path d="M14.9121 64H2.40234V42.9941H7.13379V60.1621H14.9121V64ZM24.4482 64.3662C21.9482 64.3662 19.9805 63.668 18.5449 62.2715C17.1191 60.8652 16.4062 58.9609 16.4062 56.5586C16.4062 54.0781 17.1484 52.1396 18.6328 50.7432C20.1172 49.3369 22.124 48.6338 24.6533 48.6338C27.1436 48.6338 29.0967 49.3369 30.5127 50.7432C31.9287 52.1396 32.6367 53.9902 32.6367 56.2949C32.6367 58.7852 31.9043 60.7529 30.4395 62.1982C28.9844 63.6436 26.9873 64.3662 24.4482 64.3662ZM24.5654 52.1787C23.4717 52.1787 22.6221 52.5547 22.0166 53.3066C21.4111 54.0586 21.1084 55.123 21.1084 56.5C21.1084 59.3809 22.2705 60.8213 24.5947 60.8213C26.8115 60.8213 27.9199 59.3418 27.9199 56.3828C27.9199 53.5801 26.8018 52.1787 24.5654 52.1787ZM50.3467 62.2861C50.3467 65.0693 49.541 67.2227 47.9297 68.7461C46.3184 70.2793 43.9844 71.0459 40.9277 71.0459C38.9062 71.0459 37.3047 70.7578 36.123 70.1816V66.2852C37.666 67.1836 39.2236 67.6328 40.7959 67.6328C42.3584 67.6328 43.5693 67.2178 44.4287 66.3877C45.2881 65.5674 45.7178 64.4492 45.7178 63.0332V61.8467H45.6592C44.6045 63.5264 43.0469 64.3662 40.9863 64.3662C39.0723 64.3662 37.5537 63.6924 36.4307 62.3447C35.3076 60.9971 34.7461 59.1904 34.7461 56.9248C34.7461 54.3857 35.3711 52.3691 36.6211 50.875C37.8711 49.3809 39.5166 48.6338 41.5576 48.6338C43.3838 48.6338 44.751 49.3369 45.6592 50.7432H45.7178V49H50.3467V62.2861ZM45.7764 56.793V55.6064C45.7764 54.6592 45.4932 53.8535 44.9268 53.1895C44.3701 52.5156 43.6426 52.1787 42.7441 52.1787C41.7188 52.1787 40.9131 52.5791 40.3271 53.3799C39.7412 54.1807 39.4482 55.3086 39.4482 56.7637C39.4482 58.0137 39.7266 59.0049 40.2832 59.7373C40.8398 60.46 41.6016 60.8213 42.5684 60.8213C43.5254 60.8213 44.2969 60.4551 44.8828 59.7227C45.4785 58.9805 45.7764 58.0039 45.7764 56.793ZM56.5576 46.627C55.7764 46.627 55.1367 46.3975 54.6387 45.9385C54.1406 45.4697 53.8916 44.8984 53.8916 44.2246C53.8916 43.5312 54.1406 42.9648 54.6387 42.5254C55.1367 42.0859 55.7764 41.8662 56.5576 41.8662C57.3486 41.8662 57.9883 42.0859 58.4766 42.5254C58.9746 42.9648 59.2236 43.5312 59.2236 44.2246C59.2236 44.9277 58.9746 45.5039 58.4766 45.9531C57.9883 46.4023 57.3486 46.627 56.5576 46.627ZM58.8428 64H54.2139V49H58.8428V64ZM77.2266 64H72.6123V55.665C72.6123 53.3408 71.7822 52.1787 70.1221 52.1787C69.3213 52.1787 68.6621 52.4863 68.1445 53.1016C67.627 53.7168 67.3682 54.498 67.3682 55.4453V64H62.7393V49H67.3682V51.373H67.4268C68.5303 49.5469 70.1367 48.6338 72.2461 48.6338C75.5664 48.6338 77.2266 50.6943 77.2266 54.8154V64Z" fill="#050522"/>
</svg>
