<svg width="359" height="85" viewBox="0 0 359 85" fill="none" xmlns="http://www.w3.org/2000/svg">
<g filter="url(#filter0_d)">
<rect x="13.3642" y="10.8583" width="334.722" height="61.2745" rx="13.5" stroke="#00FFCB" stroke-width="3"/>
</g>
<g filter="url(#filter1_d)">
<path d="M165.166 46.3557H157.412V32.3517H159.736V44.3928H165.166V46.3557ZM171.376 46.59C169.833 46.59 168.6 46.1245 167.675 45.1935C166.757 44.256 166.298 43.0158 166.298 41.4728C166.298 39.7932 166.777 38.4813 167.734 37.5373C168.697 36.5933 169.993 36.1213 171.621 36.1213C173.183 36.1213 174.401 36.5803 175.273 37.4982C176.145 38.4162 176.582 39.689 176.582 41.3166C176.582 42.9116 176.11 44.1909 175.166 45.1545C174.228 46.1115 172.965 46.59 171.376 46.59ZM171.484 37.9279C170.598 37.9279 169.899 38.2372 169.384 38.8557C168.87 39.4741 168.613 40.327 168.613 41.4142C168.613 42.4624 168.873 43.2892 169.394 43.8947C169.915 44.4937 170.611 44.7932 171.484 44.7932C172.376 44.7932 173.059 44.4969 173.535 43.9045C174.016 43.312 174.257 42.4689 174.257 41.3752C174.257 40.2749 174.016 39.4253 173.535 38.8264C173.059 38.2274 172.376 37.9279 171.484 37.9279ZM187.998 45.5549C187.998 49.2267 186.152 51.0627 182.46 51.0627C181.158 51.0627 180.022 50.8446 179.052 50.4084V48.3381C180.146 48.9631 181.184 49.2756 182.167 49.2756C184.544 49.2756 185.732 48.107 185.732 45.7697V44.676H185.693C184.944 45.952 183.818 46.59 182.314 46.59C181.097 46.59 180.113 46.1473 179.365 45.2619C178.623 44.37 178.251 43.1753 178.251 41.6779C178.251 39.9787 178.652 38.6278 179.453 37.6252C180.253 36.6226 181.354 36.1213 182.753 36.1213C184.075 36.1213 185.055 36.6616 185.693 37.7424H185.732V36.3557H187.998V45.5549ZM185.751 41.7756V40.4767C185.751 39.7736 185.517 39.1747 185.048 38.6799C184.586 38.1786 184.007 37.9279 183.31 37.9279C182.451 37.9279 181.777 38.2469 181.289 38.8849C180.807 39.5165 180.566 40.4019 180.566 41.5412C180.566 42.5243 180.797 43.312 181.259 43.9045C181.728 44.4904 182.347 44.7834 183.115 44.7834C183.896 44.7834 184.531 44.5034 185.019 43.9435C185.507 43.3771 185.751 42.6545 185.751 41.7756ZM192.089 34.256C191.718 34.256 191.399 34.1356 191.132 33.8947C190.872 33.6538 190.742 33.3478 190.742 32.9767C190.742 32.6057 190.872 32.2964 191.132 32.049C191.399 31.8016 191.718 31.6779 192.089 31.6779C192.473 31.6779 192.799 31.8016 193.066 32.049C193.333 32.2964 193.466 32.6057 193.466 32.9767C193.466 33.3283 193.333 33.631 193.066 33.8849C192.799 34.1323 192.473 34.256 192.089 34.256ZM193.212 46.3557H190.947V36.3557H193.212V46.3557ZM205.087 46.3557H202.822V40.7209C202.822 38.8524 202.161 37.9182 200.839 37.9182C200.149 37.9182 199.58 38.1786 199.13 38.6994C198.681 39.2137 198.457 39.8648 198.457 40.6525V46.3557H196.181V36.3557H198.457V38.0158H198.496C199.244 36.7528 200.325 36.1213 201.738 36.1213C202.825 36.1213 203.655 36.4761 204.228 37.1857C204.801 37.8889 205.087 38.9077 205.087 40.2424V46.3557Z" fill="#00FFCB"/>
</g>
<defs>
<filter id="filter0_d" x="0.864243" y="0.358337" width="357.722" height="84.2745" filterUnits="userSpaceOnUse" color-interpolation-filters="sRGB">
<feFlood flood-opacity="0" result="BackgroundImageFix"/>
<feColorMatrix in="SourceAlpha" type="matrix" values="0 0 0 0 0 0 0 0 0 0 0 0 0 0 0 0 0 0 127 0" result="hardAlpha"/>
<feOffset dx="-1" dy="1"/>
<feGaussianBlur stdDeviation="5"/>
<feColorMatrix type="matrix" values="0 0 0 0 1 0 0 0 0 0.870588 0 0 0 0 0.411765 0 0 0 0.15 0"/>
<feBlend mode="normal" in2="BackgroundImageFix" result="effect1_dropShadow"/>
<feBlend mode="normal" in="SourceGraphic" in2="effect1_dropShadow" result="shape"/>
</filter>
<filter id="filter1_d" x="146.412" y="22.6779" width="67.6758" height="39.3848" filterUnits="userSpaceOnUse" color-interpolation-filters="sRGB">
<feFlood flood-opacity="0" result="BackgroundImageFix"/>
<feColorMatrix in="SourceAlpha" type="matrix" values="0 0 0 0 0 0 0 0 0 0 0 0 0 0 0 0 0 0 127 0" result="hardAlpha"/>
<feOffset dx="-1" dy="1"/>
<feGaussianBlur stdDeviation="5"/>
<feColorMatrix type="matrix" values="0 0 0 0 1 0 0 0 0 0.870588 0 0 0 0 0.411765 0 0 0 0.15 0"/>
<feBlend mode="normal" in2="BackgroundImageFix" result="effect1_dropShadow"/>
<feBlend mode="normal" in="SourceGraphic" in2="effect1_dropShadow" result="shape"/>
</filter>
</defs>
</svg>
