<svg width="20" height="26" viewBox="0 0 20 26" fill="none" xmlns="http://www.w3.org/2000/svg">
<path d="M14.3929 6.05263C14.3929 8.41645 12.4387 10.3553 10 10.3553V11.8553C13.242 11.8553 15.8929 9.2698 15.8929 6.05263H14.3929ZM10 10.3553C7.56132 10.3553 5.60714 8.41645 5.60714 6.05263H4.10714C4.10714 9.2698 6.75803 11.8553 10 11.8553V10.3553ZM5.60714 6.05263C5.60714 3.68881 7.56132 1.75 10 1.75V0.25C6.75803 0.25 4.10714 2.83547 4.10714 6.05263H5.60714ZM10 1.75C12.4387 1.75 14.3929 3.68881 14.3929 6.05263H15.8929C15.8929 2.83547 13.242 0.25 10 0.25V1.75ZM6.14286 15.6447H13.8571V14.1447H6.14286V15.6447ZM13.8571 24.25H6.14286V25.75H13.8571V24.25ZM6.14286 24.25C3.70418 24.25 1.75 22.3112 1.75 19.9474H0.25C0.25 23.1645 2.90089 25.75 6.14286 25.75V24.25ZM18.25 19.9474C18.25 22.3112 16.2958 24.25 13.8571 24.25V25.75C17.0991 25.75 19.75 23.1645 19.75 19.9474H18.25ZM13.8571 15.6447C16.2958 15.6447 18.25 17.5835 18.25 19.9474H19.75C19.75 16.7302 17.0991 14.1447 13.8571 14.1447V15.6447ZM6.14286 14.1447C2.90089 14.1447 0.25 16.7302 0.25 19.9474H1.75C1.75 17.5835 3.70418 15.6447 6.14286 15.6447V14.1447Z" fill="#00FFCB"/>
</svg>
