<svg width="345" height="80" viewBox="0 0 345 80" fill="none" xmlns="http://www.w3.org/2000/svg">
<g filter="url(#filter0_d_10_33)">
<rect x="11" y="9" width="325" height="60" rx="15" fill="black"/>
</g>
<g filter="url(#filter1_d_10_33)">
<path d="M149.242 46H146.527L144.291 42.25C144.089 41.9049 143.891 41.612 143.695 41.3711C143.507 41.1237 143.311 40.9219 143.109 40.7656C142.914 40.6094 142.699 40.4954 142.465 40.4238C142.23 40.3522 141.967 40.3164 141.674 40.3164H140.736V46H138.422V31.9961H143.031C143.689 31.9961 144.294 32.0742 144.848 32.2305C145.401 32.3867 145.883 32.6243 146.293 32.9434C146.703 33.2559 147.022 33.6497 147.25 34.125C147.484 34.5938 147.602 35.1439 147.602 35.7754C147.602 36.2702 147.527 36.7259 147.377 37.1426C147.234 37.5527 147.025 37.9206 146.752 38.2461C146.485 38.5651 146.16 38.8385 145.775 39.0664C145.398 39.2943 144.971 39.4701 144.496 39.5938V39.6328C144.75 39.776 144.971 39.9355 145.16 40.1113C145.349 40.2806 145.528 40.4564 145.697 40.6387C145.867 40.821 146.033 41.0293 146.195 41.2637C146.365 41.4915 146.55 41.7585 146.752 42.0645L149.242 46ZM140.736 33.8809V38.4316H142.67C143.028 38.4316 143.357 38.3763 143.656 38.2656C143.962 38.1549 144.226 37.9954 144.447 37.7871C144.669 37.5788 144.841 37.3249 144.965 37.0254C145.089 36.7259 145.15 36.3906 145.15 36.0195C145.15 35.349 144.939 34.8249 144.516 34.4473C144.092 34.0697 143.484 33.8809 142.689 33.8809H140.736ZM158.568 41.6152H151.752C151.778 42.5397 152.061 43.2526 152.602 43.7539C153.148 44.2552 153.897 44.5059 154.848 44.5059C155.915 44.5059 156.895 44.1868 157.787 43.5488V45.375C156.876 45.9479 155.671 46.2344 154.174 46.2344C152.702 46.2344 151.547 45.7819 150.707 44.877C149.874 43.9655 149.457 42.6862 149.457 41.0391C149.457 39.4831 149.916 38.2168 150.834 37.2402C151.758 36.2572 152.904 35.7656 154.271 35.7656C155.639 35.7656 156.697 36.2051 157.445 37.084C158.194 37.9629 158.568 39.1836 158.568 40.7461V41.6152ZM156.381 40.0137C156.374 39.1999 156.182 38.5684 155.805 38.1191C155.427 37.6634 154.906 37.4355 154.242 37.4355C153.591 37.4355 153.038 37.6732 152.582 38.1484C152.133 38.6237 151.856 39.2454 151.752 40.0137H156.381ZM169.828 45.1992C169.828 48.8711 167.982 50.707 164.291 50.707C162.989 50.707 161.853 50.4889 160.883 50.0527V47.9824C161.977 48.6074 163.015 48.9199 163.998 48.9199C166.374 48.9199 167.562 47.7513 167.562 45.4141V44.3203H167.523C166.775 45.5964 165.648 46.2344 164.145 46.2344C162.927 46.2344 161.944 45.7917 161.195 44.9062C160.453 44.0143 160.082 42.8197 160.082 41.3223C160.082 39.623 160.482 38.2721 161.283 37.2695C162.084 36.2669 163.184 35.7656 164.584 35.7656C165.906 35.7656 166.885 36.306 167.523 37.3867H167.562V36H169.828V45.1992ZM167.582 41.4199V40.1211C167.582 39.418 167.348 38.819 166.879 38.3242C166.417 37.8229 165.837 37.5723 165.141 37.5723C164.281 37.5723 163.607 37.8913 163.119 38.5293C162.637 39.1608 162.396 40.0462 162.396 41.1855C162.396 42.1686 162.628 42.9564 163.09 43.5488C163.559 44.1348 164.177 44.4277 164.945 44.4277C165.727 44.4277 166.361 44.1478 166.85 43.5879C167.338 43.0215 167.582 42.2988 167.582 41.4199ZM173.92 33.9004C173.549 33.9004 173.23 33.7799 172.963 33.5391C172.702 33.2982 172.572 32.9922 172.572 32.6211C172.572 32.25 172.702 31.9408 172.963 31.6934C173.23 31.446 173.549 31.3223 173.92 31.3223C174.304 31.3223 174.63 31.446 174.896 31.6934C175.163 31.9408 175.297 32.25 175.297 32.6211C175.297 32.9727 175.163 33.2754 174.896 33.5293C174.63 33.7767 174.304 33.9004 173.92 33.9004ZM175.043 46H172.777V36H175.043V46ZM177.387 45.6875V43.5879C178.233 44.2324 179.167 44.5547 180.189 44.5547C181.557 44.5547 182.24 44.151 182.24 43.3438C182.24 43.1159 182.182 42.9238 182.064 42.7676C181.947 42.6048 181.788 42.4616 181.586 42.3379C181.391 42.2142 181.156 42.1035 180.883 42.0059C180.616 41.9082 180.316 41.7975 179.984 41.6738C179.574 41.5111 179.203 41.3385 178.871 41.1562C178.546 40.974 178.272 40.7689 178.051 40.541C177.836 40.3066 177.673 40.043 177.562 39.75C177.452 39.457 177.396 39.1152 177.396 38.7246C177.396 38.2428 177.51 37.8197 177.738 37.4551C177.966 37.084 178.272 36.7747 178.656 36.5273C179.04 36.2734 179.477 36.0846 179.965 35.9609C180.453 35.8307 180.958 35.7656 181.479 35.7656C182.403 35.7656 183.23 35.9056 183.959 36.1855V38.168C183.256 37.6862 182.449 37.4453 181.537 37.4453C181.251 37.4453 180.99 37.4746 180.756 37.5332C180.528 37.5918 180.333 37.6732 180.17 37.7773C180.007 37.8815 179.88 38.0085 179.789 38.1582C179.698 38.3014 179.652 38.4609 179.652 38.6367C179.652 38.8516 179.698 39.0339 179.789 39.1836C179.88 39.3333 180.014 39.4668 180.189 39.584C180.372 39.6947 180.587 39.7988 180.834 39.8965C181.088 39.9876 181.378 40.0885 181.703 40.1992C182.133 40.375 182.517 40.554 182.855 40.7363C183.201 40.9186 183.493 41.127 183.734 41.3613C183.975 41.5892 184.161 41.8561 184.291 42.1621C184.421 42.4616 184.486 42.8197 184.486 43.2363C184.486 43.7441 184.369 44.1868 184.135 44.5645C183.9 44.9421 183.588 45.2546 183.197 45.502C182.807 45.7493 182.354 45.9316 181.84 46.0488C181.332 46.1725 180.795 46.2344 180.229 46.2344C179.135 46.2344 178.188 46.0521 177.387 45.6875ZM191.918 45.8926C191.475 46.1139 190.893 46.2246 190.17 46.2246C188.23 46.2246 187.26 45.2936 187.26 43.4316V37.7773H185.59V36H187.26V33.6855L189.525 33.041V36H191.918V37.7773H189.525V42.7773C189.525 43.3698 189.633 43.793 189.848 44.0469C190.062 44.3008 190.421 44.4277 190.922 44.4277C191.306 44.4277 191.638 44.3171 191.918 44.0957V45.8926ZM202.221 41.6152H195.404C195.43 42.5397 195.714 43.2526 196.254 43.7539C196.801 44.2552 197.549 44.5059 198.5 44.5059C199.568 44.5059 200.548 44.1868 201.439 43.5488V45.375C200.528 45.9479 199.324 46.2344 197.826 46.2344C196.355 46.2344 195.199 45.7819 194.359 44.877C193.526 43.9655 193.109 42.6862 193.109 41.0391C193.109 39.4831 193.568 38.2168 194.486 37.2402C195.411 36.2572 196.557 35.7656 197.924 35.7656C199.291 35.7656 200.349 36.2051 201.098 37.084C201.846 37.9629 202.221 39.1836 202.221 40.7461V41.6152ZM200.033 40.0137C200.027 39.1999 199.835 38.5684 199.457 38.1191C199.079 37.6634 198.559 37.4355 197.895 37.4355C197.243 37.4355 196.69 37.6732 196.234 38.1484C195.785 38.6237 195.508 39.2454 195.404 40.0137H200.033ZM210.18 38.1582C209.906 37.9434 209.512 37.8359 208.998 37.8359C208.327 37.8359 207.768 38.1387 207.318 38.7441C206.869 39.3496 206.645 40.1732 206.645 41.2148V46H204.379V36H206.645V38.0605H206.684C206.905 37.3574 207.243 36.8105 207.699 36.4199C208.161 36.0228 208.676 35.8242 209.242 35.8242C209.652 35.8242 209.965 35.8861 210.18 36.0098V38.1582Z" fill="#00FFCB"/>
</g>
<defs>
<filter id="filter0_d_10_33" x="0" y="0" width="345" height="80" filterUnits="userSpaceOnUse" color-interpolation-filters="sRGB">
<feFlood flood-opacity="0" result="BackgroundImageFix"/>
<feColorMatrix in="SourceAlpha" type="matrix" values="0 0 0 0 0 0 0 0 0 0 0 0 0 0 0 0 0 0 127 0" result="hardAlpha"/>
<feOffset dx="-1" dy="1"/>
<feGaussianBlur stdDeviation="5"/>
<feColorMatrix type="matrix" values="0 0 0 0 0.0196078 0 0 0 0 0.0196078 0 0 0 0 0.133333 0 0 0 0.15 0"/>
<feBlend mode="normal" in2="BackgroundImageFix" result="effect1_dropShadow_10_33"/>
<feBlend mode="normal" in="SourceGraphic" in2="effect1_dropShadow_10_33" result="shape"/>
</filter>
<filter id="filter1_d_10_33" x="127.422" y="22.3223" width="91.7578" height="39.3848" filterUnits="userSpaceOnUse" color-interpolation-filters="sRGB">
<feFlood flood-opacity="0" result="BackgroundImageFix"/>
<feColorMatrix in="SourceAlpha" type="matrix" values="0 0 0 0 0 0 0 0 0 0 0 0 0 0 0 0 0 0 127 0" result="hardAlpha"/>
<feOffset dx="-1" dy="1"/>
<feGaussianBlur stdDeviation="5"/>
<feColorMatrix type="matrix" values="0 0 0 0 1 0 0 0 0 0.870588 0 0 0 0 0.411765 0 0 0 0.15 0"/>
<feBlend mode="normal" in2="BackgroundImageFix" result="effect1_dropShadow_10_33"/>
<feBlend mode="normal" in="SourceGraphic" in2="effect1_dropShadow_10_33" result="shape"/>
</filter>
</defs>
</svg>
