<svg width="21" height="23" viewBox="0 0 21 23" fill="none" xmlns="http://www.w3.org/2000/svg">
<path fill-rule="evenodd" clip-rule="evenodd" d="M10.3164 7.59425C8.24528 7.59425 6.56635 9.27319 6.56635 11.3443C6.56635 13.4153 8.24528 15.0943 10.3164 15.0943C12.3874 15.0943 14.0664 13.4153 14.0664 11.3443C14.0664 9.27319 12.3874 7.59425 10.3164 7.59425ZM8.06635 11.3443C8.06635 10.1016 9.07371 9.09425 10.3164 9.09425C11.559 9.09425 12.5664 10.1016 12.5664 11.3443C12.5664 12.5869 11.559 13.5943 10.3164 13.5943C9.07371 13.5943 8.06635 12.5869 8.06635 11.3443Z" fill="#00FFCB"/>
<path fill-rule="evenodd" clip-rule="evenodd" d="M13.7311 2.57654C12.7507 -0.858846 7.88205 -0.858845 6.90164 2.57654C6.59787 3.64094 5.50433 4.2723 4.43064 4.00317C0.965307 3.13454 -1.46899 7.35087 1.01593 9.91763C1.78584 10.7129 1.78584 11.9756 1.01593 12.7709C-1.46899 15.3376 0.965308 19.554 4.43064 18.6853C5.50433 18.4162 6.59787 19.0476 6.90164 20.112C7.88205 23.5474 12.7507 23.5474 13.7311 20.112C14.0348 19.0476 15.1284 18.4162 16.2021 18.6853C19.6674 19.554 22.1017 15.3376 19.6168 12.7709C18.8469 11.9756 18.8469 10.7129 19.6168 9.91763C22.1017 7.35087 19.6674 3.13454 16.2021 4.00317C15.1284 4.2723 14.0348 3.64094 13.7311 2.57654ZM8.34405 2.98818C8.91032 1.00394 11.7224 1.00394 12.2887 2.98818C12.8146 4.83102 14.7079 5.92411 16.5668 5.45815C18.5683 4.95644 19.9743 7.39175 18.5391 8.87428C17.2061 10.2512 17.2061 12.4373 18.5391 13.8142C19.9743 15.2968 18.5683 17.7321 16.5668 17.2304C14.7079 16.7644 12.8146 17.8575 12.2887 19.7003C11.7224 21.6846 8.91033 21.6846 8.34405 19.7003C7.81813 17.8575 5.92484 16.7644 4.06593 17.2304C2.06439 17.7321 0.658361 15.2968 2.09363 13.8142C3.42661 12.4373 3.42661 10.2512 2.09363 8.87428C0.658362 7.39175 2.06439 4.95644 4.06593 5.45815C5.92484 5.92411 7.81813 4.83102 8.34405 2.98818Z" fill="#00FFCB"/>
</svg>
